<?xml version="1.0" standalone="no"?>
<!DOCTYPE svg PUBLIC "-//W3C//DTD SVG 20010904//EN"
 "http://www.w3.org/TR/2001/REC-SVG-20010904/DTD/svg10.dtd">
<svg version="1.0" xmlns="http://www.w3.org/2000/svg"
 width="876.000000pt" height="876.000000pt" viewBox="0 0 876.000000 876.000000"
 preserveAspectRatio="xMidYMid meet">
<metadata>
Created by potrace 1.14, written by Peter Selinger 2001-2017
</metadata>
<g transform="translate(0.000000,876.000000) scale(0.100000,-0.100000)"
fill="#000000" stroke="none">
<path d="M1291 8678 c17 -46 46 -126 65 -178 19 -52 37 -102 41 -110 3 -8 7
-17 8 -20 4 -12 18 -50 43 -115 14 -38 27 -72 27 -75 0 -3 6 -18 12 -35 7 -16
28 -75 48 -130 20 -55 45 -122 55 -150 10 -27 42 -113 70 -190 70 -192 84
-229 115 -310 15 -38 28 -74 29 -80 2 -11 21 -62 41 -110 7 -16 18 -48 25 -70
7 -22 18 -53 25 -70 12 -28 134 -361 191 -520 14 -38 30 -79 35 -90 5 -11 20
-51 33 -90 13 -38 38 -106 54 -150 16 -44 57 -154 90 -245 33 -91 72 -196 87
-235 15 -38 37 -99 50 -135 13 -36 60 -164 105 -285 45 -121 84 -229 87 -240
3 -11 9 -24 13 -30 4 -5 10 -23 14 -40 4 -16 13 -43 21 -60 7 -16 45 -120 85
-230 40 -110 76 -209 81 -220 5 -11 31 -83 59 -160 28 -77 57 -156 65 -175 30
-78 265 -719 265 -724 0 -2 8 -21 17 -42 9 -22 17 -44 19 -49 2 -11 63 -180
89 -247 16 -40 24 -62 74 -198 l32 -85 897 2 c493 1 905 2 915 3 10 0 22 12
27 27 6 16 14 37 19 48 13 30 102 268 106 285 3 14 138 376 152 410 3 8 7 20
8 25 3 11 101 272 118 315 6 14 11 30 13 35 3 16 45 128 55 150 5 11 27 72 50
135 76 211 96 265 123 331 14 36 26 72 26 80 0 8 4 19 9 25 5 5 14 27 21 49 7
22 16 45 20 50 4 6 11 26 15 45 4 19 11 40 15 45 3 6 17 39 29 75 13 36 26 72
29 80 3 8 4 18 4 23 -1 4 3 7 8 7 5 0 9 3 8 8 -2 4 2 21 9 37 21 54 67 180 69
185 0 3 3 12 7 20 23 59 107 288 107 292 0 3 8 23 17 44 9 22 18 44 19 49 2
10 48 135 104 285 35 94 140 376 214 580 31 85 61 164 66 175 5 11 27 72 50
135 22 63 45 124 50 135 11 26 70 185 75 205 2 8 26 74 53 145 27 72 75 200
106 285 186 504 183 497 210 568 45 115 98 259 101 274 2 9 9 26 15 38 6 12
13 29 15 38 3 18 30 93 46 127 5 11 15 39 23 63 l15 42 -803 0 -803 0 -34
-102 c-18 -57 -33 -105 -34 -108 -4 -21 -78 -239 -86 -252 -5 -10 -9 -26 -9
-36 0 -10 -3 -22 -7 -26 -4 -3 -8 -14 -9 -22 -1 -9 -6 -23 -10 -32 -4 -9 -8
-21 -10 -27 -1 -5 -28 -89 -60 -185 -32 -96 -58 -177 -59 -180 0 -3 -5 -18
-12 -35 -6 -16 -82 -246 -168 -510 -86 -264 -162 -493 -168 -510 -7 -16 -12
-33 -13 -37 -1 -5 -2 -9 -4 -10 -1 -2 -3 -10 -5 -18 -2 -8 -31 -98 -65 -200
-34 -102 -63 -189 -64 -195 -1 -5 -4 -14 -7 -20 -5 -8 -15 -39 -24 -75 0 -3
-38 -117 -84 -255 -46 -137 -84 -254 -85 -260 -1 -5 -4 -14 -7 -20 -6 -9 -20
-63 -21 -75 0 -3 -5 -14 -11 -25 -6 -11 -12 -22 -12 -25 -2 -14 -47 -158 -55
-175 -5 -11 -19 -51 -30 -90 -12 -38 -26 -79 -30 -90 -8 -19 -33 -95 -35 -105
-3 -15 -109 -337 -114 -345 -3 -5 -6 -12 -7 -15 0 -3 -9 -32 -19 -65 -10 -33
-20 -64 -21 -70 -6 -23 -57 -173 -69 -205 -8 -19 -22 -62 -31 -95 -21 -73 -30
-84 -39 -54 -3 13 -10 33 -15 44 -4 11 -22 65 -40 120 -17 55 -35 109 -39 120
-12 30 -61 180 -66 201 -2 11 -13 43 -24 72 -11 29 -20 56 -20 60 -2 13 -82
257 -92 277 -6 12 -11 27 -13 35 -3 19 -155 488 -166 515 -10 22 -210 631
-216 655 -5 24 -75 233 -84 255 -5 11 -27 79 -50 150 -22 72 -44 137 -47 145
-4 8 -7 17 -8 20 -3 12 -173 530 -216 658 -27 78 -48 144 -49 147 0 3 -3 10
-5 17 -12 34 -202 612 -246 748 -27 85 -52 162 -56 170 -3 8 -7 17 -8 20 0 3
-9 31 -18 63 l-18 57 -809 0 -809 0 30 -82z"/>
<path d="M1399 1516 c-1 -1 -3 -342 -3 -758 l-2 -758 2986 0 2986 0 -1 758 0
757 -2982 1 c-1641 0 -2984 0 -2984 0z"/>
</g>
</svg>
