<svg id="Ebene_1" data-name="Ebene 1" xmlns="http://www.w3.org/2000/svg" viewBox="0 0 502.3 145.97"><defs><style>.cls-1{fill:#16ff16;}.cls-2{fill:#2f2f2f;}</style></defs><rect class="cls-1" x="439" y="80" width="25.9" height="102" transform="translate(582.3 -320.98) rotate(90)"/><path class="cls-2" d="M28.27,42.36,54,120.6,79.81,42.36h27.42l-37.73,102H38.21L.65,42.36Z" transform="translate(-0.65 -0.03)"/><path class="cls-2" d="M119,15.12C119,6.65,125.63,0,134.83,0c9,0,15.83,6.62,15.83,15.09s-6.81,15.09-15.83,15.09C125.63,30.21,119,23.59,119,15.12Zm2.76,27.24h25.77v102H121.76Z" transform="translate(-0.65 -0.03)"/><path class="cls-2" d="M172.92,43.18H198.7V85.62l34.23-43.26h33.5L221.52,93.54l45.28,50.8H233.3L198.7,100.9v43.44H172.92Z" transform="translate(-0.65 -0.03)"/><path class="cls-2" d="M320.35,40.71c16.38,0,27.61,7.73,33.69,16.2V42.36H380v102H354V129.43C348,138.27,336.37,146,320.17,146c-25.77,0-46.39-21.17-46.39-53S294.4,40.71,320.35,40.71ZM327,63.35c-13.81,0-26.88,10.31-26.88,29.64s13.07,30.37,26.88,30.37c14.17,0,27.06-10.68,27.06-30S341.15,63.35,327,63.35Z" transform="translate(-0.65 -0.03)"/></svg>