<svg id="Ebene_1" data-name="Ebene 1" xmlns="http://www.w3.org/2000/svg" viewBox="0 0 399.63 69.49"><defs><style>.cls-1,.cls-2{fill:#16ff16;}.cls-2{opacity:0.11;}</style></defs><path class="cls-1" d="M68.81,82.93,426.56,64.78" transform="translate(-57.08 -54.26)"/><path class="cls-2" d="M99.88,106.61l19-1.37,19.63-.75c16.55-.69,33.1-1.62,49.64-2.46l89.44-4.53L456.5,88.42a6.53,6.53,0,0,0-2.63-3.49q-5.89-5.54-12-10.81T429.57,63.66a6.57,6.57,0,0,0-3.81-2.15L246.89,70.58l-79.5,4c-16.49.83-33,1.73-49.47,2.27a177.66,177.66,0,0,1-19,.13q-13.4-.47-26.78.18a6.44,6.44,0,0,0,2.26,3.7q5.28,6,10.8,11.78t11.15,11.46A6.41,6.41,0,0,0,99.88,106.61Z" transform="translate(-57.08 -54.26)"/><path class="cls-2" d="M94.4,98.38c29.52-1.23,59-2.51,88.54-4l89.44-4.54,178.87-9.07a5.32,5.32,0,0,0-2.14-3.27q-5-5.14-10.26-10.06t-10.58-9.7a5.36,5.36,0,0,0-3.38-2L246,64.83l-79.5,4c-16.52.84-33,1.74-49.57,2.4-15.46.61-30.93.24-46.41.11a5.29,5.29,0,0,0,1.83,3.42q4.5,5.53,9.26,10.83t9.61,10.52A5.32,5.32,0,0,0,94.4,98.38Z" transform="translate(-57.08 -54.26)"/><path class="cls-2" d="M90.76,110c29.5-1.62,59-2.79,88.55-4.28l89.43-4.54,178.88-9.08a5.86,5.86,0,0,0-3-2.84q-6.33-4.17-12.83-8.06t-13.08-7.65a5.91,5.91,0,0,0-3.9-1.32L236,81.32l-79.5,4c-16.53.84-33.06,1.74-49.59,2.37-15.68.6-31.38.24-47.07.33a5.83,5.83,0,0,0,2.73,3q6,4.56,12.1,8.87T87,108.44A5.79,5.79,0,0,0,90.76,110Z" transform="translate(-57.08 -54.26)"/><path class="cls-2" d="M94.78,123.75c29.59-1.63,59.2-2.9,88.79-4.4L273,114.82l178.88-9.08c1.44.1,1.55-.23.32-1a55.45,55.45,0,0,0-9.11-3.5q-8.88-3-17.85-5.76A55.92,55.92,0,0,0,415.82,93l-178.88,9.08-79.5,4c-16.54.84-33.08,1.71-49.63,2.35q-9.81.56-19.64.41-14,0-28,.5c-1.41-.17-1.54.16-.37,1a53.68,53.68,0,0,0,8.71,3.92q8.53,3.39,17.15,6.57A52.93,52.93,0,0,0,94.78,123.75Z" transform="translate(-57.08 -54.26)"/><path class="cls-2" d="M99.93,98.87c29.49-1.45,59-2.68,88.46-4.18l89.44-4.53,178.88-9.08a5.05,5.05,0,0,0-1.82-3.31q-4.45-5.3-9.15-10.38t-9.5-10a5,5,0,0,0-3.14-2.11L254.23,64.3l-79.5,4c-16.52.84-33,1.73-49.55,2.39-15.33.62-30.68.3-46,.35a5,5,0,0,0,1.46,3.45q3.87,5.66,8,11.12T97,96.49A5,5,0,0,0,99.93,98.87Z" transform="translate(-57.08 -54.26)"/><path class="cls-2" d="M92.86,91.71l20.36.64,19.49-.76c16.57-.7,33.13-1.67,49.69-2.51l89.43-4.53,178.88-9.08a3.57,3.57,0,0,0-1.39-2.78q-3.63-4.29-7.51-8.37t-7.86-8a3.57,3.57,0,0,0-2.69-1.57L252.39,63.8l-79.5,4c-16.56.84-33.11,1.72-49.67,2.5q-9.61.65-19.26.56a120.51,120.51,0,0,1-29.09-2.12,3.77,3.77,0,0,0,1.18,3q3.33,4.69,6.92,9.21t7.3,8.92A3.72,3.72,0,0,0,92.86,91.71Z" transform="translate(-57.08 -54.26)"/><path class="cls-2" d="M94.84,90.83c59.14-3.6,118.34-6.22,177.5-9.22l178.88-9.07a2.33,2.33,0,0,0-.75-2.24Q448,67,445.27,63.92c-1.77-2.09-3.62-4.12-5.55-6.07a2.27,2.27,0,0,0-2.1-1.06L258.75,65.86l-79.5,4-49.73,2.54q-9.72.58-19.44.85a188.18,188.18,0,0,1-28.19-.43,2.5,2.5,0,0,0,.63,2.41Q84.86,79,87.45,82.5c1.68,2.39,3.46,4.71,5.31,7A2.5,2.5,0,0,0,94.84,90.83Z" transform="translate(-57.08 -54.26)"/><path class="cls-2" d="M95.82,109.28l19-1.33,19.69-.75c16.55-.68,33.1-1.61,49.64-2.45l89.44-4.54,178.87-9.07a7.58,7.58,0,0,0-3.26-3.42q-7-5.3-14.13-10.32t-14.41-9.94a7.53,7.53,0,0,0-4.3-2L237.48,74.57l-79.5,4c-16.49.83-33,1.73-49.49,2.25A180.07,180.07,0,0,1,89.33,81Q75.8,80.47,62.27,81a7.43,7.43,0,0,0,2.94,3.65Q71.65,90.45,78.31,96t13.41,11A7.46,7.46,0,0,0,95.82,109.28Z" transform="translate(-57.08 -54.26)"/><path class="cls-2" d="M89.9,96.51l20.08,0,19.51-.78c16.57-.72,33.13-1.67,49.69-2.51l89.43-4.54,178.88-9.07A3.68,3.68,0,0,0,445.82,77q-4.06-4-8.37-7.76t-8.68-7.4a3.69,3.69,0,0,0-2.85-1.34L247,69.55l-79.5,4c-16.55.84-33.11,1.72-49.66,2.5q-9.66.63-19.32.54a169.78,169.78,0,0,1-29-1.43A3.82,3.82,0,0,0,71,78.05q3.81,4.41,7.87,8.59t8.22,8.26A3.79,3.79,0,0,0,89.9,96.51Z" transform="translate(-57.08 -54.26)"/><path class="cls-2" d="M99.52,89.44q19.1-1.5,38.19-2.5,24.87-1.29,49.74-2.52l89.43-4.54L455.76,70.8a2.23,2.23,0,0,0-.55-2.26c-1.43-2.28-3-4.51-4.58-6.67s-3.22-4.34-5-6.4a2.25,2.25,0,0,0-2-1.21L264.81,63.33l-79.5,4L135.58,69.9q-9.7.57-19.42.87a261.16,261.16,0,0,1-27.7.08,2.41,2.41,0,0,0,.39,2.4q2,3.82,4.17,7.47T97.6,88A2.41,2.41,0,0,0,99.52,89.44Z" transform="translate(-57.08 -54.26)"/><path class="cls-2" d="M94.18,117.61c29.51-1.81,59.06-3,88.59-4.46l89.44-4.54,178.87-9.07a7.21,7.21,0,0,0-3.7-2.73Q439.8,93,432.09,89.38t-15.49-7a7.15,7.15,0,0,0-4.46-1.11L233.27,90.33q-39.75,2-79.5,4c-16.53.84-33.05,1.73-49.58,2.3q-9.73.56-19.47.23-13.81-.28-27.64.2A7,7,0,0,0,60.53,100q7.2,4.31,14.55,8.31t14.78,7.91A7.05,7.05,0,0,0,94.18,117.61Z" transform="translate(-57.08 -54.26)"/><path class="cls-2" d="M93.06,103.29c12.93-.72,25.85-1.27,38.78-1.8,16.56-.67,33.1-1.62,49.65-2.46l89.43-4.53L449.8,85.42a6.31,6.31,0,0,0-2.71-3.31q-6-5.17-12.19-10.07t-12.47-9.7a6.27,6.27,0,0,0-3.83-1.92L239.72,69.49l-79.5,4c-16.51.84-33,1.75-49.54,2.35a191.12,191.12,0,0,1-19.15.22Q77.9,75.82,64.26,76a6.27,6.27,0,0,0,2.4,3.5q5.5,5.61,11.22,11t11.55,10.61A6.21,6.21,0,0,0,93.06,103.29Z" transform="translate(-57.08 -54.26)"/></svg>